# Blender 4.0.1
# www.blender.org
mtllib proto2_room_window.mtl
o Plane
v -1.000000 0.000000 1.000000
v 1.000000 0.000000 1.000000
v -1.000000 0.000000 -1.000000
v 1.000000 0.000000 -1.000000
v -1.000000 3.000000 1.000000
v -1.000000 3.000000 -1.000000
v 1.000000 3.000000 1.000000
v 1.000000 3.000000 -1.000000
v -0.678769 2.342638 1.000000
v -0.678769 0.657362 1.000000
v 0.678769 2.342638 1.000000
v 0.678769 0.657362 1.000000
v -0.643414 2.307283 0.995000
v 0.643414 2.307283 0.995000
v 0.643414 0.692717 0.995000
v -0.643414 0.692717 0.995000
v 0.000000 2.307283 0.995000
v -0.643414 1.500000 0.995000
v 0.643414 1.500000 0.995000
v 0.000000 0.692717 0.995000
v 0.000000 1.500000 0.995000
v 0.035355 1.464645 1.000000
v 0.608058 1.464645 1.000000
v 0.608058 0.728072 1.000000
v 0.035355 0.728072 1.000000
v -0.608058 1.464645 1.000000
v -0.035355 1.464645 1.000000
v -0.035355 0.728072 1.000000
v -0.608058 0.728072 1.000000
v -0.608058 2.271928 1.000000
v -0.035355 2.271928 1.000000
v -0.035355 1.535355 1.000000
v -0.608058 1.535355 1.000000
v 0.035355 2.271928 1.000000
v 0.608058 2.271928 1.000000
v 0.608058 1.535355 1.000000
v 0.035355 1.535355 1.000000
v 0.000000 0.657362 1.000000
v -0.678769 1.500000 1.000000
v 0.678769 1.500000 1.000000
v 0.000000 2.342638 1.000000
vn -0.0000 1.0000 -0.0000
vn -0.0000 -1.0000 -0.0000
vn -0.0000 -0.0000 -1.0000
vn -0.0000 0.1400 -0.9901
vn -0.1400 -0.0000 -0.9901
vn -0.0000 -0.1400 -0.9901
vn 0.1400 -0.0000 -0.9901
vt 0.500000 0.000000
vt 1.000000 0.000000
vt 0.500000 1.000000
vt 0.000000 1.000000
vt 0.000000 0.000000
vt 0.391810 0.000000
vt 0.461571 0.000000
vt 0.766761 0.000000
vt 0.644623 0.000000
vt 0.075214 0.000000
vt 0.294194 0.000000
vt 0.513174 0.000000
vt 0.101563 0.000000
vt 0.088388 0.000000
vt 0.661612 0.000000
vt 0.810049 0.000000
vt 0.455806 0.000000
vt 0.100414 0.000000
vt 0.086216 0.000000
vt 0.114612 0.000000
vt 0.298403 0.000000
vt 0.510590 0.000000
vt 0.312480 0.000000
vt 0.382242 0.000000
vt 0.630498 0.000000
vt 0.508360 0.000000
vt 0.096864 0.000000
vt 0.111084 0.000000
vt 0.359340 0.000000
vt 0.292744 0.000000
vt 0.113795 0.000000
vt 0.128015 0.000000
vt 0.433204 0.000000
vt 0.366608 0.000000
vt 0.375000 0.000000
vt 0.451597 0.000000
vt 0.788582 0.000000
vt 0.649586 0.000000
s 0
f 1/1/1 2/2/1 4/3/1 3/4/1
f 5/5/2 6/4/2 8/4/2 7/5/2
f 22/6/3 23/7/3 24/8/3 25/9/3
f 9/10/3 39/11/3 10/12/3 1/1/3 5/5/3
f 11/13/3 41/14/3 9/10/3 5/5/3 7/5/3
f 10/12/3 38/15/3 12/16/3 2/2/3 1/1/3
f 12/16/3 40/17/3 11/13/3 7/5/3 2/2/3
f 9/10/4 41/14/4 17/18/4 13/19/4
f 11/13/4 14/20/4 17/18/4 41/14/4
f 10/12/5 39/11/5 18/21/5 16/22/5
f 9/10/5 13/19/5 18/21/5 39/11/5
f 26/23/3 27/24/3 28/25/3 29/26/3
f 30/27/3 31/28/3 32/29/3 33/30/3
f 34/31/3 35/32/3 36/33/3 37/34/3
f 21/35/6 19/36/6 23/7/6 22/6/6
f 19/36/5 15/37/5 24/8/5 23/7/5
f 15/37/4 20/38/4 25/9/4 24/8/4
f 20/38/7 21/35/7 22/6/7 25/9/7
f 18/21/6 21/35/6 27/24/6 26/23/6
f 21/35/5 20/38/5 28/25/5 27/24/5
f 20/38/4 16/22/4 29/26/4 28/25/4
f 16/22/7 18/21/7 26/23/7 29/26/7
f 13/19/6 17/18/6 31/28/6 30/27/6
f 17/18/5 21/35/5 32/29/5 31/28/5
f 21/35/4 18/21/4 33/30/4 32/29/4
f 18/21/7 13/19/7 30/27/7 33/30/7
f 17/18/6 14/20/6 35/32/6 34/31/6
f 14/20/5 19/36/5 36/33/5 35/32/5
f 19/36/4 21/35/4 37/34/4 36/33/4
f 21/35/7 17/18/7 34/31/7 37/34/7
f 12/16/7 15/37/7 19/36/7 40/17/7
f 11/13/7 40/17/7 19/36/7 14/20/7
f 12/16/6 38/15/6 20/38/6 15/37/6
f 16/22/6 20/38/6 38/15/6 10/12/6
