# Blender 4.0.1
# www.blender.org
mtllib proto2_hall_2_door.mtl
o Plane
v -1.000000 0.000000 1.000000
v 1.000000 0.000000 1.000000
v -1.000000 0.000000 -1.000000
v 1.000000 0.000000 -1.000000
v -1.000000 3.000000 1.000000
v -1.000000 3.000000 -1.000000
v 1.000000 3.000000 1.000000
v 1.000000 3.000000 -1.000000
v -0.550000 0.000000 -1.000000
v 0.550000 0.000000 -1.000000
v -0.550000 0.000000 1.000000
v 0.550000 0.000000 1.000000
v -0.550000 2.200000 1.000000
v 0.550000 2.200000 1.000000
v -0.550000 2.200000 -1.000000
v 0.550000 2.200000 -1.000000
vn -0.0000 1.0000 -0.0000
vn -0.0000 -1.0000 -0.0000
vn -0.0000 -0.0000 -1.0000
vn -0.0000 -0.0000 1.0000
vt 0.000000 0.000000
vt 0.500000 0.000000
vt 0.750000 0.000000
vt 1.000000 0.000000
vt 1.000000 1.000000
vt 0.500000 1.000000
vt 0.250000 1.000000
vt 0.000000 1.000000
s 0
f 1/1/1 11/2/1 12/3/1 2/4/1 4/5/1 10/6/1 9/7/1 3/8/1
f 5/1/2 6/8/2 8/8/2 7/1/2
f 14/1/3 7/1/3 2/4/3 12/3/3
f 1/1/3 5/1/3 13/1/3 11/1/3
f 7/1/3 14/1/3 13/1/3 5/1/3
f 15/1/4 6/1/4 3/8/4 9/7/4
f 10/6/4 4/5/4 8/1/4 16/1/4
f 8/1/4 6/1/4 15/1/4 16/1/4
