# Blender 4.0.1
# www.blender.org
mtllib proto_3_way.mtl
o Plane
v -1.000000 0.000000 1.000000
v 1.000000 0.000000 1.000000
v -1.000000 0.000000 -1.000000
v 1.000000 0.000000 -1.000000
v -1.000000 0.000000 3.000000
v 1.000000 0.000000 3.000000
v -1.000000 0.000000 -3.000000
v 1.000000 0.000000 -3.000000
v 3.000000 0.000000 1.000000
v 3.000000 0.000000 -1.000000
v 1.000000 2.500000 -1.000000
v 1.000000 2.500000 -3.000000
v 3.000000 2.500000 -1.000000
v 1.000000 2.500000 1.000000
v 1.000000 2.500000 3.000000
v 3.000000 2.500000 1.000000
v -1.000000 2.500000 1.000000
v -1.000000 2.500000 -1.000000
v -1.000000 2.500000 3.000000
v -1.000000 2.500000 -3.000000
v 3.000000 0.000000 0.500000
v 3.000000 0.000000 -0.500000
v 0.500000 0.000000 -3.000000
v -0.500000 0.000000 -3.000000
v -0.500000 0.000000 3.000000
v 0.500000 0.000000 3.000000
v 0.500000 2.000000 -3.000000
v -0.500000 2.000000 -3.000000
v -0.500000 2.000000 3.000000
v 0.500000 2.000000 3.000000
v 3.000000 2.000000 0.500000
v 3.000000 2.000000 -0.500000
vn -0.0000 1.0000 -0.0000
vn -0.0000 -0.0000 1.0000
vn -1.0000 -0.0000 -0.0000
vn -0.0000 -0.0000 -1.0000
vn 1.0000 -0.0000 -0.0000
vn -0.0000 -1.0000 -0.0000
vt 0.000000 0.000000
vt 1.000000 0.000000
vt 1.000000 1.000000
vt 0.000000 1.000000
vt 0.500000 0.000000
vt 0.750000 0.000000
vt 0.500000 1.000000
vt 0.250000 1.000000
vt 1.000000 0.500000
vt 1.000000 0.750000
s 0
f 1/1/1 2/2/1 4/3/1 3/4/1
f 2/2/1 1/1/1 5/1/1 25/5/1 26/6/1 6/2/1
f 3/4/1 4/3/1 8/3/1 23/7/1 24/8/1 7/4/1
f 4/3/1 2/2/1 9/2/1 21/9/1 22/10/1 10/3/1
f 4/3/2 10/3/2 13/3/2 11/3/2
f 8/3/3 4/3/3 11/3/3 12/3/3
f 9/2/4 2/2/4 14/2/4 16/2/4
f 2/2/3 6/2/3 15/2/3 14/2/3
f 3/4/5 7/4/5 20/4/5 18/4/5
f 5/1/5 1/1/5 17/1/5 19/1/5
f 1/1/5 3/4/5 18/4/5 17/1/5
f 15/2/6 19/1/6 17/1/6 14/2/6
f 11/3/6 18/4/6 20/4/6 12/3/6
f 18/4/6 11/3/6 14/2/6 17/1/6
f 13/3/6 16/2/6 14/2/6 11/3/6
f 31/1/3 21/9/3 9/2/3 16/2/3
f 32/1/3 13/3/3 10/3/3 22/10/3
f 13/3/3 32/1/3 31/1/3 16/2/3
f 27/1/2 23/7/2 8/3/2 12/3/2
f 28/1/2 20/4/2 7/4/2 24/8/2
f 20/4/2 28/1/2 27/1/2 12/3/2
f 29/1/4 25/5/4 5/1/4 19/1/4
f 30/1/4 15/2/4 6/2/4 26/6/4
f 15/2/4 30/1/4 29/1/4 19/1/4
