# Blender 4.0.1
# www.blender.org
mtllib Proto_3x3_room.mtl
o Plane
v -1.000000 0.000000 1.000000
v 1.000000 0.000000 1.000000
v -1.000000 0.000000 -1.000000
v 1.000000 0.000000 -1.000000
v -1.000000 0.000000 -3.000000
v 1.000000 0.000000 -3.000000
v -1.000000 0.000000 3.000000
v 1.000000 0.000000 3.000000
v -3.000000 0.000000 1.000000
v -3.000000 0.000000 -1.000000
v -3.000000 0.000000 -3.000000
v -3.000000 0.000000 3.000000
v 3.000000 0.000000 1.000000
v 3.000000 0.000000 -1.000000
v 3.000000 0.000000 -3.000000
v 3.000000 0.000000 3.000000
v 3.000000 0.000000 0.500000
v 3.000000 0.000000 -0.500000
v -1.000000 2.500000 -3.000000
v 1.000000 2.500000 -3.000000
v -1.000000 2.500000 3.000000
v 1.000000 2.500000 3.000000
v -3.000000 2.500000 1.000000
v -3.000000 2.500000 -1.000000
v -3.000000 2.500000 -3.000000
v -3.000000 2.500000 3.000000
v 3.000000 2.500000 1.000000
v 3.000000 2.500000 -1.000000
v 3.000000 2.500000 -3.000000
v 3.000000 2.500000 3.000000
v -1.000000 2.500000 1.000000
v -1.000000 2.500000 -1.000000
v 1.000000 2.500000 1.000000
v 1.000000 2.500000 -1.000000
v 3.000000 2.000000 0.500000
v 3.000000 2.000000 -0.500000
vn -0.0000 1.0000 -0.0000
vn -0.0000 -0.0000 1.0000
vn -0.0000 -0.0000 -1.0000
vn 1.0000 -0.0000 -0.0000
vn -1.0000 -0.0000 -0.0000
vn -0.0000 -1.0000 -0.0000
vt 0.000000 0.000000
vt 1.000000 0.000000
vt 1.000000 1.000000
vt 0.000000 1.000000
vt 1.000000 0.500000
vt 1.000000 0.750000
s 0
f 1/1/1 2/2/1 4/3/1 3/4/1
f 3/4/1 4/3/1 6/3/1 5/4/1
f 2/2/1 1/1/1 7/1/1 8/2/1
f 7/1/1 1/1/1 9/1/1 12/1/1
f 3/4/1 5/4/1 11/4/1 10/4/1
f 1/1/1 3/4/1 10/4/1 9/1/1
f 2/2/1 8/2/1 16/2/1 13/2/1
f 6/3/1 4/3/1 14/3/1 15/3/1
f 4/3/1 2/2/1 13/2/1 17/5/1 18/6/1 14/3/1
f 6/3/2 15/3/2 29/3/2 20/3/2
f 16/2/3 8/2/3 22/2/3 30/2/3
f 9/1/4 10/4/4 24/4/4 23/1/4
f 8/2/3 7/1/3 21/1/3 22/2/3
f 7/1/3 12/1/3 26/1/3 21/1/3
f 5/4/2 6/3/2 20/3/2 19/4/2
f 10/4/4 11/4/4 25/4/4 24/4/4
f 15/3/5 14/3/5 28/3/5 29/3/5
f 11/4/2 5/4/2 19/4/2 25/4/2
f 12/1/4 9/1/4 23/1/4 26/1/4
f 13/2/5 16/2/5 30/2/5 27/2/5
f 31/1/6 21/1/6 26/1/6 23/1/6
f 21/1/6 31/1/6 33/1/6 22/2/6
f 27/2/6 30/2/6 22/2/6 33/1/6
f 24/4/6 25/4/6 19/4/6 32/1/6
f 28/3/6 34/1/6 20/3/6 29/3/6
f 20/3/6 34/1/6 32/1/6 19/4/6
f 24/4/6 32/1/6 31/1/6 23/1/6
f 32/1/6 34/1/6 33/1/6 31/1/6
f 33/1/6 34/1/6 28/3/6 27/2/6
f 36/1/5 28/3/5 14/3/5 18/6/5
f 17/5/5 13/2/5 27/2/5 35/1/5
f 27/2/5 28/3/5 36/1/5 35/1/5
