# Blender 4.0.1
# www.blender.org
mtllib proto_corner.mtl
o Plane
v -1.000000 0.000000 -1.000000
v 1.000000 0.000000 -1.000000
v -1.000000 -0.000000 1.000000
v 1.000000 -0.000000 1.000000
v -1.000000 -0.000000 3.000000
v 1.000000 -0.000000 3.000000
v -3.000000 0.000000 -1.000000
v -3.000000 -0.000000 1.000000
v -3.000000 0.000000 -0.500000
v -1.000000 2.500000 1.000000
v -1.000000 2.500000 3.000000
v -3.000000 2.500000 1.000000
v -1.000000 2.500000 -1.000000
v 1.000000 2.500000 -1.000000
v 1.000000 2.500000 1.000000
v 1.000000 2.500000 3.000000
v -3.000000 2.500000 -1.000000
v -0.500000 -0.000000 3.000000
v -3.000000 2.000000 -0.500000
v 0.500000 -0.000000 3.000000
v -3.000000 -0.000000 0.500000
v -3.000000 2.000000 0.500000
v -0.500000 2.000000 3.000000
v 0.500000 2.000000 3.000000
vn -0.0000 1.0000 -0.0000
vn -0.0000 -0.0000 -1.0000
vn 1.0000 -0.0000 -0.0000
vn -1.0000 -0.0000 -0.0000
vn -0.0000 -0.0000 1.0000
vn -0.0000 -1.0000 -0.0000
vt 0.000000 0.000000
vt 0.000000 1.000000
vt 1.000000 1.000000
vt 1.000000 0.000000
vt 0.250000 1.000000
vt 0.750000 1.000000
vt 0.000000 0.250000
vt 0.000000 0.750000
s 0
f 1/1/1 3/2/1 4/3/1 2/4/1
f 3/2/1 5/2/1 18/5/1 20/6/1 6/3/1 4/3/1
f 1/1/1 7/1/1 9/7/1 21/8/1 8/2/1 3/2/1
f 8/2/2 12/2/2 10/2/2 3/2/2
f 3/2/3 10/2/3 11/2/3 5/2/3
f 6/3/4 16/3/4 15/3/4 4/3/4
f 2/4/5 14/4/5 13/1/5 1/1/5
f 4/3/4 15/3/4 14/4/4 2/4/4
f 1/1/5 13/1/5 17/1/5 7/1/5
f 11/2/6 10/2/6 15/3/6 16/3/6
f 14/4/6 15/3/6 10/2/6 13/1/6
f 10/2/6 12/2/6 17/1/6 13/1/6
f 22/1/3 12/2/3 8/2/3 21/8/3
f 12/2/3 22/1/3 19/1/3 17/1/3
f 17/1/3 19/1/3 9/7/3 7/1/3
f 24/1/2 16/3/2 6/3/2 20/6/2
f 16/3/2 24/1/2 23/1/2 11/2/2
f 11/2/2 23/1/2 18/5/2 5/2/2
