# Blender 4.0.1
# www.blender.org
mtllib proto2_room_corner_door_left.mtl
o Plane
v -1.000000 0.000000 1.000000
v 1.000000 0.000000 1.000000
v -1.000000 0.000000 -1.000000
v 1.000000 0.000000 -1.000000
v -1.000000 3.000000 1.000000
v -1.000000 3.000000 -1.000000
v 1.000000 3.000000 1.000000
v 1.000000 3.000000 -1.000000
v -1.000000 0.000000 1.000000
v -1.000000 0.000000 -1.000000
v -1.000000 3.000000 1.000000
v -1.000000 3.000000 -1.000000
v -0.550000 0.000000 1.000000
v -1.000000 0.000000 1.000000
v 0.550000 0.000000 1.000000
v -1.000000 0.000000 1.000000
v -1.000000 0.000000 1.000000
v -0.550000 2.200000 1.000000
v 0.550000 2.200000 1.000000
vn -0.0000 1.0000 -0.0000
vn -0.0000 -1.0000 -0.0000
vn -0.0000 -0.0000 -1.0000
vn -1.0000 -0.0000 -0.0000
vt 0.000000 0.000000
vt 0.500000 0.000000
vt 0.750000 0.000000
vt 1.000000 0.000000
vt 1.000000 1.000000
vt 0.000000 1.000000
s 0
f 1/1/1 13/2/1 15/3/1 2/4/1 4/5/1 3/6/1
f 5/1/2 6/6/2 8/6/2 7/1/2
f 6/6/1 5/1/1 11/1/1 12/6/1
f 16/1/1 17/1/1 14/1/1
f 1/1/1 3/6/1 10/6/1 9/1/1 17/1/1 16/1/1
f 19/1/3 7/1/3 2/4/3 15/3/3
f 16/1/3 17/1/3 9/1/3 11/1/3 18/1/3 13/1/3 1/1/3
f 7/1/3 19/1/3 18/1/3 11/1/3 5/1/3
f 2/4/4 7/1/4 8/6/4 4/5/4
