# Blender 4.0.1
# www.blender.org
mtllib test_hallway.mtl
o Plane
v -1.000000 0.000000 1.000000
v 1.000000 0.000000 1.000000
v -1.000000 0.000000 -1.000000
v 1.000000 0.000000 -1.000000
v -1.000000 0.000000 -3.000000
v 1.000000 0.000000 -3.000000
v -1.000000 0.000000 3.000000
v 1.000000 0.000000 3.000000
v -1.000000 0.000000 -4.000000
v 1.000000 0.000000 -4.000000
v -1.000000 0.000000 4.000000
v 1.000000 0.000000 4.000000
v 1.000000 2.500000 1.000000
v 1.000000 2.500000 -1.000000
v 1.000000 2.500000 -3.000000
v 1.000000 2.500000 3.000000
v 1.000000 2.500000 -4.000000
v 1.000000 2.500000 4.000000
v -1.000000 2.500000 1.000000
v -1.000000 2.500000 -1.000000
v -1.000000 2.500000 -3.000000
v -1.000000 2.500000 3.000000
v -1.000000 2.500000 -4.000000
v -1.000000 2.500000 4.000000
v 0.000000 0.000000 1.000000
v 0.000000 0.000000 -1.000000
v 0.000000 0.000000 -3.000000
v 0.000000 0.000000 3.000000
v 0.000000 0.000000 -4.000000
v 0.000000 0.000000 4.000000
v 0.500000 0.000000 1.000000
v 0.500000 0.000000 3.000000
v 0.500000 0.000000 4.000000
v 0.500000 0.000000 -1.000000
v 0.500000 0.000000 -3.000000
v 0.500000 0.000000 -4.000000
v -0.500000 0.000000 -1.000000
v -0.500000 0.000000 -3.000000
v -0.500000 0.000000 -4.000000
v -0.500000 0.000000 1.000000
v -0.500000 0.000000 3.000000
v -0.500000 0.000000 4.000000
v 0.500000 2.000000 -4.000000
v -0.500000 2.000000 -4.000000
v -0.500000 2.000000 4.000000
v 0.500000 2.000000 4.000000
vn -0.0000 1.0000 -0.0000
vn -1.0000 -0.0000 -0.0000
vn 1.0000 -0.0000 -0.0000
vn -0.0000 -1.0000 -0.0000
vn -0.0000 -0.0000 1.0000
vn -0.0000 -0.0000 -1.0000
vt 0.750000 0.000000
vt 1.000000 0.000000
vt 1.000000 1.000000
vt 0.750000 1.000000
vt 0.250000 0.000000
vt 0.000000 0.000000
vt 0.000000 1.000000
vt 0.500000 0.000000
vt 0.250000 1.000000
vt 0.500000 1.000000
s 0
f 31/1/1 2/2/1 4/3/1 34/4/1
f 34/4/1 4/3/1 6/3/1 35/4/1
f 40/5/1 1/6/1 7/6/1 41/5/1
f 35/4/1 6/3/1 10/3/1 36/4/1
f 41/5/1 7/6/1 11/6/1 42/5/1
f 4/3/2 2/2/2 13/2/2 14/3/2
f 10/3/2 6/3/2 15/3/2 17/3/2
f 2/2/2 8/2/2 16/2/2 13/2/2
f 6/3/2 4/3/2 14/3/2 15/3/2
f 8/2/2 12/2/2 18/2/2 16/2/2
f 1/6/3 3/7/3 20/7/3 19/6/3
f 5/7/3 9/7/3 23/7/3 21/7/3
f 7/6/3 1/6/3 19/6/3 22/6/3
f 3/7/3 5/7/3 21/7/3 20/7/3
f 11/6/3 7/6/3 22/6/3 24/6/3
f 17/3/4 15/3/4 21/7/4 23/7/4
f 14/3/4 20/7/4 21/7/4 15/3/4
f 13/2/4 19/6/4 20/7/4 14/3/4
f 16/2/4 22/6/4 19/6/4 13/2/4
f 16/2/4 18/2/4 24/6/4 22/6/4
f 32/1/1 28/8/1 30/8/1 33/1/1
f 38/9/1 27/10/1 29/10/1 39/9/1
f 31/1/1 25/8/1 28/8/1 32/1/1
f 37/9/1 26/10/1 27/10/1 38/9/1
f 40/5/1 25/8/1 26/10/1 37/9/1
f 2/2/1 31/1/1 32/1/1 8/2/1
f 8/2/1 32/1/1 33/1/1 12/2/1
f 27/10/1 35/4/1 36/4/1 29/10/1
f 26/10/1 34/4/1 35/4/1 27/10/1
f 25/8/1 31/1/1 34/4/1 26/10/1
f 1/6/1 40/5/1 37/9/1 3/7/1
f 3/7/1 37/9/1 38/9/1 5/7/1
f 5/7/1 38/9/1 39/9/1 9/7/1
f 28/8/1 41/5/1 42/5/1 30/8/1
f 25/8/1 40/5/1 41/5/1 28/8/1
f 23/7/5 44/6/5 43/6/5 17/3/5
f 39/9/5 44/6/5 23/7/5 9/7/5
f 17/3/5 43/6/5 36/4/5 10/3/5
f 33/1/6 46/6/6 18/2/6 12/2/6
f 18/2/6 46/6/6 45/6/6 24/6/6
f 24/6/6 45/6/6 42/5/6 11/6/6
